<svg width="90" height="37" viewBox="0 0 90 37" fill="none" xmlns="http://www.w3.org/2000/svg">
<path d="M2.5068 4.69543V6.46166H6.32415V8H0.797534V0.0234404H6.2102V1.56178H2.5068V3.27104H5.9823V4.69543H2.5068ZM7.00741 8V1.9606H8.37482L8.54575 2.64431H8.60272C8.95977 2.11254 9.43456 1.84665 10.0271 1.84665C10.3842 1.84665 10.7108 1.93402 11.0071 2.10874C11.3034 2.28347 11.5275 2.51896 11.6794 2.81524H11.7364C11.8807 2.53416 12.1238 2.30246 12.4657 2.12014C12.8075 1.93781 13.1722 1.84665 13.5596 1.84665C13.9926 1.84665 14.3762 1.94541 14.7105 2.14293C15.0523 2.33284 15.3144 2.61012 15.4967 2.97477C15.6867 3.33181 15.7816 3.75343 15.7816 4.23962V8H14.1863V4.46752C14.1863 4.0649 14.0914 3.76483 13.9014 3.56731C13.7115 3.3698 13.4646 3.27104 13.1608 3.27104C12.8873 3.27104 12.6556 3.37739 12.4657 3.5901C12.2833 3.79521 12.1922 4.08769 12.1922 4.46752V8H10.5969V4.46752C10.5969 4.0649 10.5019 3.76483 10.312 3.56731C10.1221 3.3698 9.87517 3.27104 9.5713 3.27104C9.29782 3.27104 9.06612 3.37739 8.8762 3.5901C8.69388 3.79521 8.60272 4.08769 8.60272 4.46752V8H7.00741ZM16.7475 10.279V1.9606H18.1149L18.2859 2.64431H18.3428C18.7987 2.11254 19.3684 1.84665 20.0521 1.84665C20.5687 1.84665 21.0245 1.9682 21.4195 2.2113C21.8146 2.4468 22.1222 2.80004 22.3425 3.27104C22.5628 3.74204 22.673 4.31179 22.673 4.9803C22.673 5.64881 22.5628 6.21857 22.3425 6.68957C22.1222 7.16056 21.8146 7.51761 21.4195 7.7607C21.0245 7.9962 20.5687 8.11395 20.0521 8.11395C19.6495 8.11395 19.3114 8.04178 19.0379 7.89744C18.7645 7.74551 18.5518 7.57079 18.3998 7.37327H18.3428V10.279H16.7475ZM19.7103 6.68957C20.1053 6.68957 20.4319 6.54903 20.6902 6.26795C20.9485 5.97927 21.0777 5.55006 21.0777 4.9803C21.0777 4.41055 20.9485 3.98513 20.6902 3.70405C20.4319 3.41538 20.1053 3.27104 19.7103 3.27104C19.3152 3.27104 18.9886 3.41538 18.7303 3.70405C18.472 3.98513 18.3428 4.41055 18.3428 4.9803C18.3428 5.55006 18.472 5.97927 18.7303 6.26795C18.9886 6.54903 19.3152 6.68957 19.7103 6.68957ZM26.0942 8.11395C25.175 8.11395 24.4495 7.84047 23.9177 7.2935C23.3935 6.73894 23.1315 5.96788 23.1315 4.9803C23.1315 3.99273 23.3935 3.22546 23.9177 2.6785C24.4495 2.12393 25.175 1.84665 26.0942 1.84665C27.0134 1.84665 27.7351 2.12393 28.2592 2.6785C28.791 3.22546 29.0569 3.99273 29.0569 4.9803C29.0569 5.96788 28.791 6.73894 28.2592 7.2935C27.7351 7.84047 27.0134 8.11395 26.0942 8.11395ZM26.0942 6.68957C26.4892 6.68957 26.8159 6.54903 27.0742 6.26795C27.3324 5.97927 27.4616 5.55006 27.4616 4.9803C27.4616 4.41055 27.3324 3.98513 27.0742 3.70405C26.8159 3.41538 26.4892 3.27104 26.0942 3.27104C25.6991 3.27104 25.3725 3.41538 25.1142 3.70405C24.8559 3.98513 24.7268 4.41055 24.7268 4.9803C24.7268 5.55006 24.8559 5.97927 25.1142 6.26795C25.3725 6.54903 25.6991 6.68957 26.0942 6.68957ZM32.6104 8H30.8214L29.1691 1.9606H30.7644L31.8013 6.06284H31.8583L32.9408 1.9606H34.4906L35.5731 6.06284H35.6301L36.667 1.9606H38.2282L36.5759 8H34.7868L33.7271 4.18265H33.6701L32.6104 8ZM44.207 4.86635C44.207 5.07146 44.188 5.28037 44.15 5.49308H39.9794C40.1238 6.32872 40.5644 6.74654 41.3013 6.74654C41.5899 6.74654 41.8103 6.69716 41.9622 6.5984C42.1141 6.49205 42.2547 6.33252 42.3838 6.11981H44.0931C43.9335 6.69716 43.6259 7.17576 43.1701 7.55559C42.7143 7.92783 42.0913 8.11395 41.3013 8.11395C40.3821 8.11395 39.6566 7.84047 39.1248 7.2935C38.6006 6.73894 38.3386 5.96788 38.3386 4.9803C38.3386 3.99273 38.6006 3.22546 39.1248 2.6785C39.6566 2.12393 40.3821 1.84665 41.3013 1.84665C41.8786 1.84665 42.3876 1.9758 42.8282 2.23409C43.2688 2.48478 43.6069 2.84182 43.8424 3.30522C44.0855 3.76103 44.207 4.2814 44.207 4.86635ZM42.6459 4.35357C42.5851 4.0497 42.437 3.78382 42.2015 3.55592C41.9736 3.32802 41.6735 3.21406 41.3013 3.21406C40.9594 3.21406 40.6707 3.31662 40.4352 3.52173C40.2073 3.71925 40.0554 3.99653 39.9794 4.35357H42.6459ZM44.9473 8V1.9606H46.3147L46.4856 2.64431H46.5426C46.8464 2.18851 47.3212 1.9606 47.967 1.9606H48.7076V3.49894H48.0809C47.6023 3.49894 47.2263 3.63188 46.9528 3.89777C46.6793 4.16365 46.5426 4.5245 46.5426 4.9803V8H44.9473ZM54.4622 4.86635C54.4622 5.07146 54.4432 5.28037 54.4052 5.49308H50.2346C50.3789 6.32872 50.8195 6.74654 51.5564 6.74654C51.8451 6.74654 52.0654 6.69716 52.2173 6.5984C52.3693 6.49205 52.5098 6.33252 52.6389 6.11981H54.3482C54.1887 6.69716 53.881 7.17576 53.4252 7.55559C52.9694 7.92783 52.3465 8.11395 51.5564 8.11395C50.6372 8.11395 49.9117 7.84047 49.3799 7.2935C48.8558 6.73894 48.5937 5.96788 48.5937 4.9803C48.5937 3.99273 48.8558 3.22546 49.3799 2.6785C49.9117 2.12393 50.6372 1.84665 51.5564 1.84665C52.1338 1.84665 52.6427 1.9758 53.0833 2.23409C53.524 2.48478 53.862 2.84182 54.0975 3.30522C54.3406 3.76103 54.4622 4.2814 54.4622 4.86635ZM52.901 4.35357C52.8403 4.0497 52.6921 3.78382 52.4566 3.55592C52.2287 3.32802 51.9286 3.21406 51.5564 3.21406C51.2146 3.21406 50.9259 3.31662 50.6904 3.52173C50.4625 3.71925 50.3105 3.99653 50.2346 4.35357H52.901ZM57.5384 8.11395C57.0218 8.11395 56.566 7.9962 56.171 7.7607C55.7759 7.51761 55.4683 7.16056 55.248 6.68957C55.0277 6.21857 54.9175 5.64881 54.9175 4.9803C54.9175 4.31179 55.0277 3.74204 55.248 3.27104C55.4683 2.80004 55.7759 2.4468 56.171 2.2113C56.566 1.9682 57.0218 1.84665 57.5384 1.84665C57.941 1.84665 58.2791 1.92262 58.5525 2.07456C58.826 2.21889 59.0387 2.38982 59.1907 2.58733H59.2476V0.0234404H60.843V8H59.4755L59.3046 7.31629H59.2476C58.7918 7.84807 58.2221 8.11395 57.5384 8.11395ZM57.8802 6.68957C58.2753 6.68957 58.6019 6.54903 58.8602 6.26795C59.1185 5.97927 59.2476 5.55006 59.2476 4.9803C59.2476 4.41055 59.1185 3.98513 58.8602 3.70405C58.6019 3.41538 58.2753 3.27104 57.8802 3.27104C57.4852 3.27104 57.1585 3.41538 56.9003 3.70405C56.642 3.98513 56.5128 4.41055 56.5128 4.9803C56.5128 5.55006 56.642 5.97927 56.9003 6.26795C57.1585 6.54903 57.4852 6.68957 57.8802 6.68957ZM67.5727 8.11395C66.889 8.11395 66.3193 7.84807 65.8635 7.31629H65.8065L65.6356 8H64.2682V0.0234404H65.8635V2.58733H65.9204C66.0724 2.38982 66.2851 2.21889 66.5586 2.07456C66.832 1.92262 67.1701 1.84665 67.5727 1.84665C68.0893 1.84665 68.5451 1.9682 68.9401 2.2113C69.3352 2.4468 69.6428 2.80004 69.8631 3.27104C70.0834 3.74204 70.1936 4.31179 70.1936 4.9803C70.1936 5.64881 70.0834 6.21857 69.8631 6.68957C69.6428 7.16056 69.3352 7.51761 68.9401 7.7607C68.5451 7.9962 68.0893 8.11395 67.5727 8.11395ZM67.2309 6.68957C67.6259 6.68957 67.9526 6.54903 68.2109 6.26795C68.4691 5.97927 68.5983 5.55006 68.5983 4.9803C68.5983 4.41055 68.4691 3.98513 68.2109 3.70405C67.9526 3.41538 67.6259 3.27104 67.2309 3.27104C66.8358 3.27104 66.5092 3.41538 66.2509 3.70405C65.9926 3.98513 65.8635 4.41055 65.8635 4.9803C65.8635 5.55006 65.9926 5.97927 66.2509 6.26795C66.5092 6.54903 66.8358 6.68957 67.2309 6.68957ZM73.2186 10.279H71.5664L72.4894 8L70.028 1.9606H71.7487L73.2756 6.00586H73.3326L74.8481 1.9606H76.5232L73.2186 10.279Z" fill="white"/>
<path d="M70.0492 36.3384C68.516 36.3384 67.1213 36.0722 65.865 35.5399C64.63 34.9863 63.6293 34.1771 62.8627 33.1125C62.0962 32.0265 61.6809 30.717 61.6171 29.1839H66.9829C67.0042 29.9505 67.281 30.568 67.8134 31.0364C68.367 31.4836 69.1123 31.7071 70.0492 31.7071C70.7731 31.7071 71.3374 31.6113 71.742 31.4197C72.1678 31.2068 72.4766 30.9406 72.6682 30.6212C72.8598 30.2805 72.9557 29.8972 72.9557 29.4714C72.9557 29.0029 72.796 28.6196 72.4766 28.3215C72.1572 28.0021 71.7526 27.7466 71.2629 27.555C70.7731 27.3633 70.0917 27.1398 69.2187 26.8842C67.8134 26.4797 66.6529 26.0645 65.7373 25.6386C64.8217 25.1914 64.0232 24.5101 63.3418 23.5944C62.6817 22.6788 62.3517 21.4545 62.3517 19.9214C62.3517 18.4522 62.703 17.2278 63.4057 16.2483C64.1297 15.2688 65.0772 14.5449 66.2483 14.0764C67.4195 13.5867 68.6864 13.3418 70.0492 13.3418C71.8804 13.3418 73.3922 13.6505 74.5846 14.268C75.7983 14.8856 76.682 15.7053 77.2356 16.7274C77.8105 17.7495 78.1193 18.8887 78.1619 20.145H72.796C72.7321 19.4636 72.4766 18.9312 72.0294 18.548C71.6036 18.1647 71.0073 17.9731 70.2408 17.9731C69.7085 17.9731 69.2613 18.0582 68.8993 18.2286C68.5373 18.3989 68.2605 18.6331 68.0689 18.9313C67.8985 19.2294 67.8134 19.5594 67.8134 19.9214C67.8134 20.4324 67.9837 20.8583 68.3244 21.199C68.6651 21.5184 69.0803 21.7845 69.5701 21.9975C70.0811 22.1891 70.7944 22.434 71.71 22.7321C73.1154 23.1792 74.2652 23.6157 75.1595 24.0416C76.0538 24.4675 76.8204 25.1169 77.4592 25.9899C78.098 26.8629 78.4174 28.0234 78.4174 29.4714C78.4174 30.8554 78.0767 32.0691 77.3953 33.1125C76.7139 34.1559 75.7344 34.9543 74.4568 35.508C73.2005 36.0616 71.7313 36.3384 70.0492 36.3384Z" fill="white"/>
<path d="M36.8199 36.0189V13.6611H44.0064L48.6376 28.6728H48.7973L53.4605 13.6611H60.4873V36.0189H55.5366V20.9753H55.3769L50.6818 36.0189H46.6254L41.9303 20.9753H41.7706V36.0189H36.8199Z" fill="white"/>
<path d="M29.2837 36.0189V13.6611H34.5218V36.0189H29.2837Z" fill="white"/>
<path d="M21.9377 36.0189V13.6611H27.1759V36.0189H21.9377Z" fill="white"/>
<path d="M-0.000244141 36.0189L6.80292 13.6611H13.2547L20.0579 36.0189H14.7879L10.0288 19.027H9.86913L5.14205 36.0189H-0.000244141ZM4.6949 31.9945L6.45158 27.5549H13.7338L15.4586 31.9945H4.6949Z" fill="white"/>
<path d="M89.165 14.0673C89.2156 14.0504 89.2634 14.056 89.3084 14.0841C89.359 14.1066 89.3955 14.1404 89.418 14.1853C89.4461 14.2247 89.4574 14.2697 89.4518 14.3203C89.4518 14.3652 89.4293 14.4074 89.3843 14.4468C89.3506 14.4749 89.3168 14.503 89.2831 14.5311C89.2494 14.5592 89.2156 14.5873 89.1819 14.6154C89.165 14.6604 89.1425 14.7026 89.1144 14.7419C89.0919 14.7757 89.0666 14.815 89.0385 14.86C88.8924 15.0849 88.7377 15.3042 88.5747 15.5178C88.4229 15.7258 88.2683 15.931 88.1109 16.1334C87.9591 16.3358 87.8073 16.541 87.6555 16.7491C87.4924 16.9627 87.3322 17.1735 87.1748 17.3816C87.0174 17.5896 86.8599 17.8004 86.7025 18.014C86.5732 18.2052 86.4411 18.3992 86.3061 18.5959C86.1712 18.7871 86.0644 18.9923 85.9857 19.2116C86.0025 19.2622 86.0025 19.3128 85.9857 19.3634C85.9688 19.414 85.9323 19.4533 85.876 19.4814L85.8001 19.532C85.6877 19.5995 85.5865 19.6023 85.4966 19.5405C85.4066 19.473 85.356 19.3831 85.3448 19.2706C85.3279 19.1413 85.3391 19.0148 85.3785 18.8911C85.4235 18.7674 85.4797 18.6465 85.5471 18.5285C85.6146 18.4104 85.6905 18.298 85.7748 18.1911C85.8592 18.0787 85.9351 17.9747 86.0025 17.8791C86.1487 17.6711 86.2977 17.4659 86.4495 17.2635C86.6013 17.0611 86.7587 16.8615 86.9218 16.6647C87.0623 16.4848 87.2029 16.3077 87.3434 16.1334C87.4896 15.9591 87.6358 15.782 87.782 15.6021C87.7314 15.6471 87.678 15.6893 87.6217 15.7286C87.5711 15.768 87.5233 15.8102 87.4784 15.8551C87.3322 15.9788 87.186 16.1053 87.0398 16.2346C86.8993 16.3639 86.7615 16.4989 86.6266 16.6394C86.4861 16.78 86.3539 16.929 86.2302 17.0864C86.1066 17.2382 85.9772 17.3816 85.8423 17.5165C85.7748 17.584 85.7018 17.6261 85.623 17.643C85.5443 17.6599 85.4713 17.6542 85.4038 17.6261C85.3363 17.598 85.2801 17.5502 85.2351 17.4828C85.1901 17.4153 85.1677 17.3338 85.1677 17.2382C85.1677 17.092 85.193 16.9458 85.2436 16.7997C85.2998 16.6479 85.3588 16.5017 85.4207 16.3611C85.3419 16.4623 85.266 16.5635 85.193 16.6647C85.1199 16.7659 85.044 16.8643 84.9653 16.9599C84.7966 17.196 84.6307 17.4293 84.4677 17.6599C84.3046 17.8904 84.15 18.1265 84.0039 18.3682C83.9308 18.4919 83.8577 18.6156 83.7846 18.7393C83.7171 18.8574 83.6525 18.9811 83.5906 19.1104C83.5625 19.161 83.5316 19.2172 83.4979 19.279C83.4698 19.3353 83.4529 19.3943 83.4473 19.4561C83.4416 19.5011 83.4388 19.5236 83.4388 19.5236C83.4445 19.5236 83.481 19.5292 83.5485 19.5405C83.6272 19.563 83.6834 19.6136 83.7171 19.6923C83.7509 19.771 83.7452 19.8469 83.7003 19.92C83.6553 19.9931 83.5991 20.0465 83.5316 20.0802C83.4641 20.1196 83.391 20.142 83.3123 20.1477C83.2392 20.1533 83.1633 20.142 83.0846 20.1139C83.0059 20.0914 82.9385 20.0521 82.8822 19.9959C82.7585 19.8722 82.6939 19.7288 82.6883 19.5658C82.6826 19.3971 82.7079 19.2397 82.7642 19.0935C82.8935 18.7618 83.0565 18.4441 83.2533 18.1405C83.4501 17.8313 83.6497 17.5334 83.8521 17.2466C84.2737 16.6563 84.7123 16.0828 85.1677 15.5262C85.623 14.964 86.0841 14.4046 86.5507 13.848V13.8564C86.5901 13.8171 86.635 13.7946 86.6856 13.789C86.7419 13.7777 86.7925 13.7805 86.8374 13.7974C86.8824 13.8143 86.9218 13.8424 86.9555 13.8817C86.9949 13.9155 87.0174 13.9576 87.023 14.0082C87.0792 14.0363 87.0989 14.0841 87.082 14.1516C87.0483 14.2922 86.9949 14.4271 86.9218 14.5564C86.8543 14.6801 86.7868 14.8066 86.7194 14.9359C86.6575 15.0596 86.5957 15.1805 86.5338 15.2985C86.472 15.4166 86.4102 15.5375 86.3483 15.6612C86.2865 15.7849 86.2274 15.9085 86.1712 16.0322C86.115 16.1503 86.0616 16.274 86.011 16.4033C86.0391 16.3752 86.07 16.3443 86.1037 16.3105C86.1375 16.2768 86.1684 16.2431 86.1965 16.2093C86.4889 15.917 86.7953 15.6359 87.1157 15.366C87.2675 15.2423 87.4222 15.1158 87.5796 14.9865C87.7426 14.8572 87.9085 14.7363 88.0771 14.6239C88.2514 14.5058 88.4285 14.399 88.6084 14.3034C88.7883 14.2078 88.9739 14.1291 89.165 14.0673Z" fill="#F5412C"/>
<path d="M86.3764 13.7637C86.4382 13.7862 86.4832 13.8199 86.5113 13.8649C86.545 13.9098 86.5619 13.9604 86.5619 14.0167C86.5619 14.0673 86.545 14.1179 86.5113 14.1685C86.4832 14.2134 86.4382 14.2472 86.3764 14.2697C86.1346 14.3596 85.876 14.4074 85.6005 14.413C85.325 14.413 85.0579 14.4243 84.7993 14.4468C84.6532 14.458 84.5098 14.4721 84.3692 14.4889C84.2343 14.5002 84.0937 14.5142 83.9476 14.5311C83.8857 14.6267 83.8126 14.7194 83.7283 14.8094C83.6496 14.8937 83.5765 14.9837 83.509 15.0793C83.4303 15.1805 83.3572 15.2845 83.2898 15.3913C83.2223 15.4981 83.152 15.6049 83.0789 15.7118C82.9328 15.931 82.7866 16.1531 82.6404 16.378C82.4999 16.5972 82.3621 16.8221 82.2272 17.0526C82.0922 17.2775 81.9601 17.5052 81.8308 17.7357C81.7071 17.9663 81.6031 18.208 81.5188 18.461C81.4907 18.5453 81.4626 18.6381 81.4344 18.7393C81.412 18.8405 81.4148 18.9389 81.4429 19.0345C81.471 19.1132 81.5216 19.1778 81.5947 19.2284C81.6678 19.2734 81.7212 19.3324 81.7549 19.4055C81.783 19.4674 81.7943 19.532 81.7886 19.5995C81.7886 19.667 81.7605 19.726 81.7043 19.7766C81.5919 19.889 81.4569 19.9312 81.2995 19.9031C81.1421 19.875 81.0072 19.8131 80.8947 19.7176C80.7823 19.622 80.6951 19.5039 80.6333 19.3634C80.5714 19.2228 80.5349 19.0794 80.5237 18.9333C80.5124 18.7758 80.5265 18.6156 80.5658 18.4526C80.5996 18.2895 80.6502 18.1321 80.7176 17.9803C80.7795 17.8229 80.8526 17.6711 80.9369 17.5249C81.0156 17.3731 81.0943 17.2297 81.173 17.0948C81.3417 16.7912 81.5216 16.4989 81.7127 16.2178C81.9095 15.9366 82.1063 15.6527 82.3031 15.366C82.3762 15.2648 82.4493 15.158 82.5223 15.0455C82.6011 14.9275 82.6826 14.8122 82.7669 14.6998C82.424 14.756 82.0754 14.8234 81.7212 14.9022C81.7718 14.9359 81.8027 14.9837 81.8139 15.0455C81.8308 15.1017 81.8308 15.1608 81.8139 15.2226C81.8027 15.2788 81.7718 15.3294 81.7212 15.3744C81.6762 15.4138 81.6172 15.4363 81.5441 15.4419C81.3979 15.4531 81.2377 15.4559 81.0634 15.4503C80.8891 15.4447 80.7373 15.411 80.608 15.3491C80.4731 15.2873 80.3887 15.1889 80.355 15.054C80.3213 14.9134 80.3494 14.7841 80.4393 14.666C80.4787 14.6098 80.5321 14.562 80.5996 14.5227C80.6614 14.4777 80.7289 14.4411 80.802 14.413C80.8694 14.3793 80.9425 14.3512 81.0212 14.3287C81.0943 14.3062 81.1646 14.2865 81.232 14.2697C81.3895 14.2247 81.5469 14.1853 81.7043 14.1516C81.8617 14.1179 82.022 14.0869 82.185 14.0588C82.5392 13.997 82.8906 13.9408 83.2392 13.8902C83.5934 13.8339 83.9476 13.789 84.3018 13.7552C84.4761 13.744 84.6503 13.7327 84.8246 13.7215C84.9989 13.7103 85.176 13.699 85.3559 13.6878C85.5302 13.6765 85.7017 13.6709 85.8704 13.6709C86.0446 13.6709 86.2133 13.7018 86.3764 13.7637Z" fill="#F5412C"/>
</svg>
